<mxfile host="app.diagrams.net">
  <diagram name="Common User Use Cases" id="0">
    <mxGraphModel dx="1040" dy="640" grid="1" gridSize="10" guides="1" tooltips="1" connect="1" arrows="1" fold="1" page="1" pageScale="1" pageWidth="827" pageHeight="1169" math="0" shadow="0">
      <root>
        <mxCell id="0" />
        <mxCell id="1" parent="0" />
        <!-- Actor -->
        <mxCell id="2" value="Community User" style="shape=umlActor;" vertex="1" parent="1">
          <mxGeometry x="80" y="200" width="30" height="60" as="geometry" />
        </mxCell>
        <!-- Use Case: View Products -->
        <mxCell id="3" value="View Products" style="ellipse;whiteSpace=wrap;html=1;" vertex="1" parent="1">
          <mxGeometry x="300" y="100" width="160" height="50" as="geometry" />
        </mxCell>
        <!-- Use Case: View Product Details -->
      
        </mxCell>
        <!-- Association: Community User to View Product Details -->
        <mxCell id="8" edge="1" source="2" target="4" parent="1">
          <mxGeometry relative="1" as="geometry" />
        </mxCell>
        <!-- Association: Community User to Buy Products -->
        <mxCell id="9" edge="1" source="2" target="5" parent="1">
          <mxGeometry relative="1" as="geometry" />
        </mxCell>
        <!-- Association: Community User to Support Women Entrepreneurship -->
        <mxCell id="10" edge="1" source="2" target="6" parent="1">
          <mxGeometry relative="1" as="geometry" />
        </mxCell>
      </root>
    </mxGraphModel>
  </diagram>
</mxfile>
